<?xml version="1.0" standalone="no"?>
<!DOCTYPE svg PUBLIC "-//W3C//DTD SVG 20010904//EN"
 "http://www.w3.org/TR/2001/REC-SVG-20010904/DTD/svg10.dtd">
<svg version="1.0" xmlns="http://www.w3.org/2000/svg"
 width="1255.000000pt" height="1170.000000pt" viewBox="0 0 1255.000000 1170.000000"
 preserveAspectRatio="xMidYMid meet">

<g transform="translate(0.000000,1170.000000) scale(0.100000,-0.100000)"
fill="#000000" stroke="none">
<path d="M6430 7932 c0 -5 -46 -12 -102 -15 -95 -5 -123 -11 -223 -52 -11 -4
-23 -7 -27 -7 -5 1 -8 -7 -8 -18 0 -11 -5 -20 -10 -20 -29 0 -89 -94 -110
-172 -8 -29 -11 -89 -8 -160 3 -97 8 -121 32 -174 27 -59 27 -63 12 -93 -12
-22 -24 -31 -41 -31 -30 0 -33 -15 -6 -30 26 -13 40 -13 21 1 -32 23 50 -1
122 -35 40 -19 91 -38 113 -42 48 -8 85 -40 132 -116 38 -61 47 -68 57 -42 4
11 14 15 31 12 14 -3 25 -1 25 3 0 5 -7 9 -15 9 -8 0 -19 9 -25 20 -12 23 -1
27 31 9 52 -28 136 -15 164 24 19 28 20 68 1 61 -8 -3 -17 -1 -20 5 -7 11 -44
-4 -58 -24 -5 -6 -8 -3 -8 7 0 9 -15 27 -32 39 -18 12 -35 24 -38 26 -2 2 -3
19 -2 38 1 18 -2 36 -8 40 -17 10 -11 61 10 88 22 28 63 33 55 7 -17 -58 -27
-112 -21 -118 4 -3 16 -1 26 6 11 7 36 12 55 12 19 0 35 5 35 10 0 6 -6 10
-12 9 -27 -3 -49 1 -44 10 7 10 56 9 74 -2 6 -5 12 -18 13 -30 1 -16 4 -11 13
15 6 20 14 40 19 44 15 15 6 53 -18 82 -15 18 -23 37 -19 46 4 9 0 18 -8 21
-10 4 -13 15 -10 31 5 29 12 30 35 3 10 -11 21 -18 24 -15 3 3 1 12 -6 20 -9
11 -8 15 4 20 9 3 15 14 13 23 -2 13 4 19 22 20 23 2 23 2 5 -6 -18 -9 -17
-10 8 -10 35 -1 42 -20 27 -66 -7 -20 -10 -39 -7 -42 3 -3 11 15 17 39 7 23
16 51 22 62 12 24 -4 36 -49 36 -18 0 -33 4 -33 10 0 5 -16 9 -35 8 -33 -1
-41 -10 -36 -43 1 -5 -10 2 -23 18 -14 15 -33 28 -43 29 -35 3 -54 -2 -48 -12
4 -6 -5 -10 -20 -10 -15 0 -24 4 -20 10 3 6 1 10 -5 10 -24 0 -76 80 -66 103
2 7 5 4 5 -5 1 -10 8 -18 16 -18 13 0 14 4 5 20 -6 11 -8 20 -4 20 3 0 1 7 -6
15 -7 8 -16 12 -21 9 -5 -3 -22 7 -37 23 -35 37 -70 32 -63 -10 1 -5 -3 -6 -9
-2 -12 7 5 45 21 45 6 0 7 4 4 10 -3 5 4 12 17 14 30 6 173 19 218 20 19 1 38
6 42 11 25 34 -18 101 -71 111 -16 4 -39 15 -50 26 -12 10 -21 15 -21 10z
m-122 -114 c7 -7 12 -16 12 -22 0 -5 -6 -2 -13 9 -9 11 -19 15 -27 10 -9 -5
-11 -4 -6 3 9 15 19 15 34 0z m59 -25 c5 3 15 2 23 -4 11 -6 6 -9 -17 -9 -25
0 -33 4 -33 18 0 13 2 14 9 3 5 -7 13 -11 18 -8z m-246 -320 c34 -32 37 -53 9
-53 -15 0 -20 7 -20 25 0 18 -5 25 -20 25 -21 0 -28 -16 -9 -22 5 -2 -2 -14
-17 -27 -23 -20 -26 -21 -20 -5 21 52 24 74 11 74 -7 0 -16 -6 -18 -12 -3 -8
-6 -6 -6 5 -2 28 55 22 90 -10z m399 23 c0 -9 -30 -14 -35 -6 -4 6 3 10 14 10
12 0 21 -2 21 -4z m60 -21 c0 -8 -2 -15 -4 -15 -2 0 -6 7 -10 15 -3 8 -1 15 4
15 6 0 10 -7 10 -15z m-557 -49 c3 -30 1 -43 -4 -35 -8 13 -13 97 -5 88 2 -2
6 -26 9 -53z m525 24 c11 -1 -2 -20 -18 -25 -18 -6 -18 -8 12 -36 18 -16 38
-29 45 -29 7 0 13 -9 13 -20 0 -11 -4 -20 -8 -20 -13 0 -43 36 -36 43 3 3 -5
3 -18 0 -12 -4 -29 -15 -37 -25 -16 -23 -51 -18 -81 12 -11 11 -25 20 -31 20
-12 0 -43 29 -37 35 2 2 23 8 47 14 41 9 43 8 53 -19 5 -16 17 -31 26 -35 14
-5 14 -4 -1 13 -17 19 -23 63 -10 76 6 6 23 5 81 -4z m-484 -76 c3 -8 2 -12
-4 -9 -6 3 -10 10 -10 16 0 14 7 11 14 -7z m90 -10 c10 -25 -1 -29 -14 -5 -6
12 -7 21 -1 21 5 0 12 -7 15 -16z m-89 -57 c13 -9 35 -18 49 -19 13 -1 23 -6
20 -10 -15 -24 -108 36 -111 72 l-2 25 10 -25 c5 -14 21 -33 34 -43z m573 -40
c7 -8 6 -18 -4 -31 -12 -18 -14 -18 -20 -2 -5 12 -14 16 -28 12 -19 -5 -18 -3
4 14 30 23 34 24 48 7z m-93 -17 c-3 -5 -12 -10 -18 -10 -7 0 -6 4 3 10 19 12
23 12 15 0z m-221 -101 c-3 -5 -1 -9 5 -9 5 0 9 -9 8 -20 -1 -17 -11 -19 -12
-2 -1 4 -6 17 -13 28 -6 12 -8 24 -5 28 3 3 -1 6 -11 6 -10 0 -14 5 -10 12 5
8 13 4 26 -11 10 -13 15 -27 12 -32z m43 8 c10 -6 11 -13 1 -30 -11 -21 -12
-21 -23 13 -7 19 -10 39 -7 45 3 5 8 2 10 -5 3 -8 11 -19 19 -23z m-3 -92 c-4
-8 -8 -15 -10 -15 -2 0 -4 7 -4 15 0 8 4 15 10 15 5 0 7 -7 4 -15z"/>
<path d="M6493 7158 c-13 -6 -23 -15 -23 -19 0 -13 36 -29 64 -29 14 0 26 -4
26 -10 0 -5 5 -10 12 -10 6 0 8 3 5 7 -4 3 1 12 11 19 16 11 16 13 -2 33 -21
23 -58 26 -93 9z"/>
<path d="M5873 7119 c-18 -5 -33 -11 -33 -12 0 -1 32 -3 71 -4 40 -2 79 -8 88
-15 14 -11 14 -11 4 3 -7 9 -10 19 -6 22 3 4 2 7 -3 8 -5 0 -27 2 -49 4 -22 2
-55 -1 -72 -6z"/>
<path d="M6050 7086 c0 -2 12 -12 28 -21 l27 -18 -19 21 c-17 20 -36 29 -36
18z"/>
<path d="M6157 7029 c7 -7 15 -10 18 -7 3 3 -2 9 -12 12 -14 6 -15 5 -6 -5z"/>
<path d="M5464 6936 c-8 -9 -7 -18 6 -34 l18 -21 -2 29 c-2 35 -7 42 -22 26z"/>
<path d="M6394 6904 c3 -9 6 -21 6 -27 0 -7 5 -4 11 6 11 18 5 37 -13 37 -5 0
-7 -7 -4 -16z"/>
<path d="M5993 6745 c0 -22 2 -30 4 -17 2 12 2 30 0 40 -3 9 -5 -1 -4 -23z"/>
<path d="M5430 6689 c0 -5 5 -7 10 -4 6 3 10 8 10 11 0 2 -4 4 -10 4 -5 0 -10
-5 -10 -11z"/>
<path d="M5434 6673 c-23 -4 -54 -51 -54 -80 0 -11 7 -28 15 -39 15 -19 16
-19 13 1 -2 15 2 19 16 17 13 -2 16 0 10 10 -5 7 -9 25 -10 41 -2 22 3 30 29
41 31 14 23 18 -19 9z"/>
<path d="M5410 6566 c0 -2 8 -10 18 -17 15 -13 16 -12 3 4 -13 16 -21 21 -21
13z"/>
<path d="M5926 6525 c-9 -26 -7 -32 5 -12 6 10 9 21 6 23 -2 3 -7 -2 -11 -11z"/>
<path d="M5876 6491 c-10 -11 -15 -25 -11 -30 3 -6 -1 -11 -9 -11 -9 0 -16 -7
-16 -15 0 -21 -33 -95 -42 -95 -5 0 -8 -5 -8 -12 0 -7 25 12 55 42 52 52 59
69 41 99 -7 11 -5 13 7 8 18 -7 21 1 9 21 -7 9 -13 8 -26 -7z"/>
<path d="M5978 6433 c-21 -5 -23 -19 -5 -27 6 -3 3 -4 -8 -3 -15 1 -21 -5 -23
-25 -3 -27 -1 -28 37 -28 45 0 49 5 26 30 -14 16 -13 19 17 34 l33 17 -34 -7
c-23 -4 -31 -3 -27 5 4 6 6 10 4 10 -2 -1 -11 -3 -20 -6z"/>
<path d="M5359 6373 c-8 -9 -33 -25 -56 -35 -41 -18 -73 -58 -73 -91 0 -12
-12 -10 -59 9 -73 30 -236 42 -325 25 -155 -29 -223 -89 -320 -286 -107 -216
-133 -309 -106 -379 22 -60 112 -131 256 -204 22 -12 110 -37 195 -58 301 -72
745 -183 829 -208 46 -14 86 -23 88 -21 2 2 -1 12 -7 23 -16 30 -24 124 -12
152 6 16 10 19 10 8 1 -9 7 -19 14 -22 9 -4 9 -8 1 -11 -7 -3 -9 -15 -7 -26 5
-16 8 -18 15 -7 6 9 8 6 6 -12 -2 -20 1 -25 18 -24 16 1 20 -4 17 -16 -3 -10
4 -27 16 -39 19 -19 19 -21 4 -30 -14 -7 -15 -12 -5 -24 7 -8 11 -20 10 -27
-2 -7 7 -16 18 -20 21 -8 21 -8 7 21 -8 16 -12 36 -9 44 7 20 36 7 36 -17 0
-10 4 -17 9 -14 5 3 15 -2 22 -11 11 -13 11 -17 2 -20 -7 -3 -13 -9 -13 -15 0
-5 6 -8 13 -5 6 2 20 0 31 -5 14 -8 17 -7 10 3 -4 7 -7 27 -6 44 1 23 -1 26
-7 11 -7 -18 -8 -18 -14 -2 -14 35 -9 48 13 36 12 -6 20 -21 20 -36 0 -14 4
-23 9 -20 5 4 12 0 15 -6 3 -7 3 -2 0 12 -3 14 -9 34 -14 45 -5 11 -14 39 -20
63 -8 32 -21 50 -50 70 -22 15 -39 32 -40 38 0 7 -7 25 -15 40 -9 19 -13 41
-9 62 6 29 2 38 -29 67 -19 18 -33 36 -30 38 2 3 -5 8 -16 12 -12 3 -19 10
-16 14 2 5 -7 18 -20 31 -13 13 -22 27 -18 33 3 6 1 7 -4 4 -6 -4 -14 0 -17 9
-3 8 -11 12 -16 9 -6 -4 -9 -2 -8 3 3 12 -20 49 -44 71 -10 8 -18 21 -18 28 0
7 -9 17 -20 23 -11 6 -29 27 -40 48 -12 20 -31 55 -45 77 -13 22 -31 56 -40
75 -31 65 -95 160 -107 160 -22 0 8 23 60 46 71 31 107 29 107 -7 1 -14 11
-39 23 -57 13 -17 52 -92 87 -166 74 -157 111 -217 190 -306 31 -36 76 -95
100 -132 24 -37 55 -74 69 -84 35 -22 96 -107 96 -132 0 -30 29 -114 47 -134
17 -19 10 -38 -13 -38 -24 0 -71 28 -79 47 -11 26 -16 75 -7 69 4 -2 8 15 9
37 1 36 0 38 -7 15 -4 -14 -12 -32 -16 -40 -12 -17 -12 -177 0 -171 5 3 7 0 4
-8 -9 -27 -144 -13 -217 24 -29 14 -35 14 -89 -5 -31 -12 -106 -29 -167 -37
l-110 -17 3 -53 c3 -60 19 -96 66 -149 19 -20 37 -53 41 -72 4 -19 22 -69 41
-110 18 -41 36 -88 40 -105 7 -27 97 -125 116 -125 4 0 8 -6 8 -14 0 -8 11
-23 24 -33 13 -11 27 -34 31 -53 4 -19 15 -48 25 -65 17 -29 61 -198 61 -232
-1 -108 -33 -214 -78 -259 -13 -13 -23 -28 -23 -34 0 -5 -6 -10 -14 -10 -8 0
-29 -13 -48 -29 -18 -16 -64 -56 -103 -88 -66 -56 -194 -217 -182 -229 8 -8
77 -12 72 -4 -2 4 25 6 60 5 36 0 65 3 65 8 0 4 4 6 9 3 4 -3 22 0 40 7 21 7
34 8 39 2 4 -6 25 -11 46 -12 21 0 33 2 27 7 -10 5 -9 9 2 13 9 3 18 -1 22
-11 5 -14 7 -14 15 -2 6 8 10 11 10 7 0 -4 10 -3 21 4 15 8 19 8 15 0 -9 -13
-4 -14 28 -2 17 7 26 7 30 -2 2 -7 5 -4 5 6 1 17 21 25 21 8 0 -5 10 -7 23 -3
20 5 21 4 7 -14 -14 -18 -14 -18 6 -1 11 9 24 14 27 11 4 -4 13 -2 20 5 11 9
17 8 27 -4 14 -17 50 -21 50 -5 0 5 -8 7 -17 3 -10 -3 -15 -3 -11 2 4 4 21 9
38 10 25 2 30 -1 25 -13 -5 -13 -2 -12 15 3 11 10 20 13 20 7 0 -8 8 -9 23 -3
12 4 28 6 36 3 8 -3 11 0 7 7 -4 6 -3 11 3 11 5 0 13 -5 16 -10 4 -6 11 -7 17
-4 6 4 15 0 20 -7 7 -10 8 -8 3 7 -4 15 0 24 10 28 9 3 14 2 11 -3 -3 -5 2
-12 11 -15 14 -6 62 32 71 57 7 21 11 42 27 126 17 94 27 111 55 104 29 -8 33
15 17 87 -10 43 -12 72 -6 94 13 45 32 163 35 219 2 55 38 179 64 222 11 19
19 59 23 111 6 99 1 135 -20 127 -11 -4 -12 -8 -3 -13 9 -6 10 -25 4 -71 -4
-35 -9 -56 -12 -46 -2 10 -9 14 -15 11 -7 -4 -9 -4 -5 1 4 4 3 14 -3 22 -9 10
-7 13 11 13 19 0 21 2 10 15 -7 9 -19 14 -27 11 -9 -4 -16 4 -20 24 -3 17 -10
30 -16 30 -8 0 -7 4 0 11 6 6 9 19 7 28 -3 9 2 5 11 -9 l16 -25 -5 39 c-3 21
-12 46 -21 56 -11 12 -13 24 -7 40 7 19 12 12 37 -56 22 -59 30 -73 35 -58 4
10 3 30 -2 44 -5 13 -7 35 -3 47 3 13 2 23 -3 23 -5 0 -7 13 -4 28 2 15 -1 43
-6 62 -7 24 -10 28 -11 14 -1 -12 -7 -26 -14 -32 -10 -9 -13 -4 -13 23 0 18 3
32 6 30 6 -4 6 14 0 50 -1 6 -5 1 -10 -10 -7 -16 -9 -17 -9 -3 -1 9 -11 24
-23 32 -12 9 -20 16 -16 16 12 0 335 -113 448 -157 238 -93 322 -119 405 -127
28 -3 86 -12 130 -20 123 -23 281 -38 331 -30 63 9 102 39 156 119 50 75 128
248 148 330 33 133 -71 269 -314 413 -131 78 -150 84 -467 162 -139 34 -353
86 -474 116 -277 68 -874 252 -905 279 -8 8 -18 14 -23 14 -64 1 -196 35 -255
66 -24 13 -70 31 -103 41 -56 17 -78 34 -43 34 14 0 15 7 9 43 -5 23 -9 63
-10 89 -1 56 -19 79 -83 106 -71 29 -127 36 -143 15z m-159 -263 c-13 -24 -13
-63 0 -55 5 3 7 0 4 -9 -4 -11 0 -14 14 -11 16 3 19 -1 16 -26 -2 -19 0 -28 7
-23 6 3 13 -3 16 -15 6 -23 14 -26 29 -11 7 7 11 6 11 -4 0 -8 -4 -13 -9 -10
-10 6 -11 -10 -1 -20 4 -3 8 -15 10 -26 1 -10 11 -33 22 -50 17 -29 20 -30 35
-15 15 15 16 15 18 -2 0 -10 1 -25 0 -33 -1 -20 17 -52 27 -46 4 3 7 -5 7 -17
-1 -15 5 -22 16 -21 10 1 14 -4 11 -12 -3 -8 0 -14 6 -14 6 0 11 -7 11 -16 0
-10 6 -14 15 -11 8 4 17 2 20 -3 3 -4 -1 -10 -7 -13 -8 -2 -1 -10 15 -17 15
-8 27 -21 27 -32 0 -10 3 -17 8 -17 19 3 33 -2 27 -10 -3 -6 3 -14 12 -20 10
-5 15 -12 12 -16 -8 -8 -129 114 -186 187 -38 50 -42 61 -33 80 10 21 10 22
-4 5 -13 -17 -17 -14 -55 44 -23 35 -39 70 -36 77 2 7 1 11 -4 8 -4 -3 -18 13
-30 34 -12 22 -19 40 -16 40 4 0 -3 8 -15 18 -20 16 -22 24 -16 65 4 26 12 45
17 42 5 -4 5 -13 -1 -25z m410 -552 c0 -4 -4 -8 -9 -8 -6 0 -12 4 -15 8 -3 5
1 9 9 9 8 0 15 -4 15 -9z m11 -33 c3 2 5 -8 6 -23 2 -26 2 -26 -8 -4 -5 13
-13 21 -17 18 -5 -3 -9 1 -9 9 0 10 4 12 12 5 7 -5 14 -8 16 -5z m53 -71 c7
-19 2 -18 -19 6 -16 17 -16 20 -3 15 9 -4 19 -13 22 -21z m41 -44 c10 -11 16
-20 13 -20 -3 0 -13 9 -23 20 -10 11 -16 20 -13 20 3 0 13 -9 23 -20z m46 -47
c13 -16 12 -17 -3 -4 -10 7 -18 15 -18 17 0 8 8 3 21 -13z m129 -163 c-8 -5
-10 -10 -4 -10 6 0 11 -7 11 -15 0 -8 -4 -15 -9 -15 -4 0 -8 7 -8 15 0 8 -6
15 -12 15 -9 0 -8 4 2 10 8 5 20 10 25 10 6 0 3 -5 -5 -10z m-20 -30 c0 -5 -2
-10 -4 -10 -3 0 -8 5 -11 10 -3 6 -1 10 4 10 6 0 11 -4 11 -10z m1797 -16 c-3
-3 -12 -4 -19 -1 -8 3 -5 6 6 6 11 1 17 -2 13 -5z m-1512 -139 l30 -14 -30 6
c-16 3 -37 9 -45 14 -27 15 11 10 45 -6z m115 -39 c30 -10 64 -21 75 -26 11
-5 59 -21 107 -36 48 -16 83 -31 78 -34 -6 -4 -5 -24 4 -56 18 -64 27 -136 15
-128 -5 3 -9 22 -9 43 0 62 -17 96 -54 109 -59 21 -72 12 -18 -13 51 -24 52
-25 52 -67 0 -24 7 -56 15 -72 19 -35 20 -52 3 -39 -17 12 -89 10 -85 -2 1 -6
18 -9 37 -8 42 2 46 -4 49 -70 1 -29 6 -81 12 -117 16 -110 30 -242 34 -313
l3 -69 -24 23 c-13 12 -21 26 -17 32 3 6 1 7 -5 3 -10 -6 -28 30 -24 47 1 4
-3 7 -9 7 -5 0 -8 4 -4 9 3 5 0 13 -6 17 -7 4 -9 3 -5 -4 3 -6 2 -13 -3 -16
-5 -3 -12 1 -15 10 -4 9 -9 15 -12 12 -9 -9 19 -58 33 -58 7 0 13 -4 13 -10 0
-5 -7 -7 -15 -4 -16 7 -18 3 -9 -20 3 -9 12 -12 22 -8 14 5 15 3 4 -10 -14
-18 -10 -35 32 -132 13 -29 14 -41 5 -52 -6 -8 -9 -30 -6 -51 5 -34 5 -35 -3
-8 -5 17 -13 59 -18 95 -5 37 -38 138 -75 233 -48 125 -67 186 -71 235 -5 54
-4 61 5 37 5 -16 11 -36 13 -43 1 -7 5 -11 9 -10 3 2 13 -6 21 -17 11 -15 11
-22 3 -27 -8 -5 -8 -8 -1 -8 20 0 23 13 9 34 -18 24 -20 56 -4 56 18 0 109
-62 104 -71 -3 -4 -1 -10 5 -14 16 -10 11 23 -10 65 -24 47 -24 51 -5 44 8 -4
15 -1 15 5 0 6 -5 11 -11 11 -6 0 -8 7 -5 16 3 8 2 12 -4 9 -6 -3 -10 -1 -10
4 0 6 -6 11 -12 11 -22 0 -122 45 -145 64 -12 10 -19 25 -16 32 3 8 1 14 -3
14 -5 0 -10 33 -11 73 -4 134 -8 168 -21 176 -11 7 -11 9 2 14 33 13 15 47
-33 62 -18 5 -22 4 -17 -6 5 -9 2 -8 -6 1 -7 9 -24 21 -38 28 -28 14 -19 12
60 -12z m-213 -37 c15 -6 37 -15 48 -20 11 -5 32 -13 48 -19 29 -10 35 -24 15
-36 -7 -5 -8 -3 -3 6 5 9 4 11 -3 6 -19 -12 -92 16 -122 46 -31 30 -27 34 17
17z m1843 -39 c0 -5 -5 -10 -11 -10 -5 0 -7 5 -4 10 3 6 8 10 11 10 2 0 4 -4
4 -10z m-1730 -53 c8 -2 18 -4 22 -3 4 0 14 -8 22 -19 11 -15 12 -23 3 -34
-10 -12 -8 -13 11 -9 19 5 22 3 20 -15 -2 -14 5 -25 20 -33 35 -17 40 -26 8
-14 -42 16 -75 55 -69 80 3 11 2 20 -3 19 -20 -5 -65 15 -75 33 -9 16 -8 18 8
9 10 -5 25 -12 33 -14z m420 -41 c0 -3 -4 -8 -10 -11 -5 -3 -10 -1 -10 4 0 6
5 11 10 11 6 0 10 -2 10 -4z m-290 -62 c0 -2 -9 0 -20 6 -11 6 -20 13 -20 16
0 2 9 0 20 -6 11 -6 20 -13 20 -16z m272 -119 c3 -14 1 -28 -3 -31 -5 -3 -9 9
-9 25 0 38 6 40 12 6z m75 -277 c-3 -8 -6 -5 -6 6 -1 11 2 17 5 13 3 -3 4 -12
1 -19z m-67 -315 c0 -44 -5 -41 -14 10 -5 27 -4 37 3 32 6 -3 11 -22 11 -42z
m-155 -103 c-27 -12 -43 -12 -25 0 8 5 22 9 30 9 10 0 8 -3 -5 -9z m-52 -17
c-7 -2 -19 -2 -25 0 -7 3 -2 5 12 5 14 0 19 -2 13 -5z m147 -157 c8 -3 4 -4
-10 0 -14 3 -30 6 -37 6 -6 1 -9 8 -6 15 5 12 8 12 22 0 9 -8 23 -17 31 -21z
m-73 8 c-3 -3 -12 -4 -19 -1 -8 3 -5 6 6 6 11 1 17 -2 13 -5z m73 -85 c0 -4
-19 -7 -42 -7 -51 0 -121 -23 -196 -63 -30 -17 -56 -28 -59 -25 -3 2 35 23 84
46 48 23 95 45 103 50 18 11 110 10 110 -1z m-69 -76 c-10 -4 -10 -7 -1 -13 8
-5 5 -9 -8 -12 -16 -4 -20 -1 -19 13 1 12 9 19 22 18 12 0 15 -3 6 -6z m17
-67 c-7 -8 -15 -12 -17 -11 -5 6 10 25 20 25 5 0 4 -6 -3 -14z"/>
<path d="M6380 4860 c8 -5 20 -10 25 -10 6 0 3 5 -5 10 -8 5 -19 10 -25 10 -5
0 -3 -5 5 -10z"/>
<path d="M6400 4799 c0 -12 40 -48 54 -49 5 0 -3 11 -17 24 -14 13 -23 27 -20
30 4 3 1 6 -5 6 -7 0 -12 -5 -12 -11z"/>
<path d="M6475 4740 c-3 -6 1 -7 9 -4 18 7 21 14 7 14 -6 0 -13 -4 -16 -10z"/>
<path d="M6450 4401 c0 -6 4 -13 10 -16 6 -3 7 1 4 9 -7 18 -14 21 -14 7z"/>
<path d="M6476 4355 c-10 -26 -7 -30 7 -12 9 13 16 14 27 6 13 -9 12 -10 -2
-5 -15 4 -16 3 -6 -14 7 -10 15 -17 19 -14 4 2 14 -11 23 -29 8 -17 16 -25 16
-17 0 24 -44 95 -62 98 -8 2 -18 -4 -22 -13z"/>
<path d="M6431 4344 c-1 -5 5 -18 12 -28 12 -16 13 -16 13 3 0 11 -3 18 -7 15
-4 -2 -10 2 -12 8 -3 7 -6 8 -6 2z"/>
<path d="M6504 4253 c10 -11 37 -12 30 -2 -3 5 -12 9 -21 9 -9 0 -13 -3 -9 -7z"/>
<path d="M6078 4913 c7 -3 16 -2 19 1 4 3 -2 6 -13 5 -11 0 -14 -3 -6 -6z"/>
<path d="M5669 6163 c-7 -8 -24 -19 -37 -24 -13 -5 -20 -14 -16 -20 4 -7 9 -7
13 -1 3 5 23 18 45 29 28 14 34 21 23 26 -9 3 -21 -1 -28 -10z"/>
<path d="M5725 6150 c-3 -5 3 -10 14 -10 11 0 23 5 26 10 3 6 -3 10 -14 10
-11 0 -23 -4 -26 -10z"/>
<path d="M5936 6051 c-10 -16 -8 -18 29 -23 17 -3 24 -3 17 -1 -8 3 -11 12 -8
20 5 13 4 14 -8 4 -11 -9 -15 -9 -18 1 -3 9 -6 9 -12 -1z"/>
<path d="M6025 6030 c-3 -5 -1 -10 4 -10 6 0 11 5 11 10 0 6 -2 10 -4 10 -3 0
-8 -4 -11 -10z"/>
<path d="M5931 6004 c7 -8 14 -12 17 -10 2 3 13 1 23 -4 10 -6 20 -6 23 -1 3
5 -12 13 -35 19 -34 9 -38 8 -28 -4z"/>
<path d="M6778 5833 c-26 -4 -28 -7 -27 -51 1 -26 4 -37 6 -25 2 11 22 33 44
48 21 15 39 29 39 31 0 4 -20 3 -62 -3z"/>
<path d="M5815 5190 c-3 -5 -1 -10 4 -10 6 0 11 5 11 10 0 6 -2 10 -4 10 -3 0
-8 -4 -11 -10z"/>
<path d="M5594 5148 c-4 -7 -3 -8 4 -4 7 4 12 2 12 -3 0 -6 4 -11 10 -11 5 0
7 7 4 15 -7 18 -20 19 -30 3z"/>
<path d="M5620 5116 c0 -2 8 -10 18 -17 15 -13 16 -12 3 4 -13 16 -21 21 -21
13z"/>
<path d="M5822 5089 c6 -16 12 -29 13 -27 6 6 -8 58 -16 58 -4 0 -3 -14 3 -31z"/>
<path d="M6110 5110 c0 -9 39 -25 46 -18 2 3 -7 10 -21 16 -14 6 -25 7 -25 2z"/>
<path d="M6646 4501 c-4 -7 -5 -15 -2 -18 9 -9 19 4 14 18 -4 11 -6 11 -12 0z"/>
</g>
</svg>
